<svg width="24" height="24" viewBox="0 0 24 24" fill="none" xmlns="http://www.w3.org/2000/svg">
<g clip-path="url(#clip0_1999_1941)">
<path d="M4.5 19.125C4.2775 19.125 4.05999 19.191 3.87498 19.3146C3.68998 19.4382 3.54578 19.6139 3.46064 19.8195C3.37549 20.025 3.35321 20.2512 3.39662 20.4695C3.44003 20.6877 3.54717 20.8882 3.70451 21.0455C3.86184 21.2028 4.0623 21.31 4.28052 21.3534C4.49875 21.3968 4.72495 21.3745 4.93052 21.2894C5.13609 21.2042 5.31179 21.06 5.4354 20.875C5.55902 20.69 5.625 20.4725 5.625 20.25C5.62466 19.9517 5.50603 19.6658 5.29512 19.4549C5.08422 19.244 4.79827 19.1253 4.5 19.125ZM4.5 20.625C4.42583 20.625 4.35333 20.603 4.29166 20.5618C4.22999 20.5206 4.18193 20.462 4.15355 20.3935C4.12516 20.325 4.11774 20.2496 4.13221 20.1768C4.14668 20.1041 4.18239 20.0373 4.23484 19.9848C4.28728 19.9324 4.3541 19.8967 4.42684 19.8822C4.49958 19.8677 4.57498 19.8752 4.64351 19.9035C4.71203 19.9319 4.7706 19.98 4.8118 20.0417C4.85301 20.1033 4.875 20.1758 4.875 20.25C4.87489 20.3494 4.83534 20.4447 4.76504 20.515C4.69474 20.5853 4.59942 20.6249 4.5 20.625Z" fill="black"/>
<path d="M22.1252 7.125H17.6252C17.4236 7.12481 17.2256 7.17915 17.0524 7.28226C16.9621 7.10221 16.8435 6.93787 16.701 6.79552L16.61 6.70452C16.5751 6.66978 16.5474 6.62846 16.5285 6.58294C16.5097 6.53742 16.5 6.48861 16.5002 6.43934V5.98683C16.8125 5.9416 17.0982 5.78538 17.3048 5.54677C17.5114 5.30816 17.6251 5.00312 17.6252 4.6875V2.40532C17.6252 2.18794 17.5824 1.97269 17.4992 1.77185C17.416 1.57102 17.2941 1.38854 17.1403 1.23483C16.9866 1.08112 16.8042 0.959188 16.6033 0.876001C16.4025 0.792814 16.1872 0.749999 15.9699 0.75H12.5305C12.3131 0.749998 12.0979 0.792813 11.897 0.876C11.6962 0.959187 11.5137 1.08112 11.36 1.23483C11.2063 1.38854 11.0844 1.57102 11.0012 1.77185C10.918 1.97269 10.8752 2.18794 10.8752 2.40532V3H10.5002V3.75H12.0002V4.60945C11.999 4.98447 12.1108 5.35115 12.321 5.66169C12.5312 5.97222 12.8302 6.21221 13.1788 6.35035L13.6395 6.5346C13.7092 6.56223 13.769 6.61023 13.811 6.67234C13.8531 6.73444 13.8754 6.80778 13.8752 6.88277V7.34469L13.7199 7.5H9.396C9.35995 7.39921 9.30986 7.304 9.24723 7.21719C9.14369 7.07187 9.00674 6.95357 8.8479 6.87226C8.68907 6.79095 8.51302 6.74902 8.33459 6.75H6.13984C5.71673 6.75001 5.30239 6.87059 4.94535 7.09763C4.58832 7.32466 4.30338 7.64875 4.12392 8.03191C3.94446 8.41507 3.87791 8.84144 3.93207 9.26107C3.98623 9.6807 4.15886 10.0762 4.42972 10.4012L5.05512 11.1517C5.09785 11.203 5.12611 11.2648 5.137 11.3307C5.14789 11.3965 5.141 11.4641 5.11706 11.5264L3.49084 15.7546C3.31921 15.7689 3.15275 15.8205 3.00311 15.9057L1.22675 16.9208C1.00706 17.0458 0.833272 17.238 0.730954 17.4691C0.628635 17.7003 0.603183 17.9581 0.658341 18.2048C0.7135 18.4515 0.846357 18.6739 1.03737 18.8395C1.22839 19.005 1.46749 19.1049 1.7195 19.1244C1.55821 19.5229 1.48443 19.9514 1.50317 20.3808C1.52191 20.8103 1.63273 21.2307 1.82811 21.6136C2.0235 21.9965 2.29889 22.3329 2.63564 22.6001C2.97239 22.8673 3.36262 23.059 3.77991 23.1622C4.1972 23.2654 4.63181 23.2778 5.05428 23.1984C5.47675 23.119 5.87723 22.9498 6.22859 22.7021C6.57995 22.4544 6.87398 22.1342 7.09076 21.763C7.30755 21.3918 7.44203 20.9783 7.48509 20.5506C7.6131 20.5997 7.74902 20.6249 7.88612 20.625H15.3994C15.4947 21.3821 15.875 22.0745 16.4628 22.561C17.0507 23.0476 17.8018 23.2919 18.5634 23.2441C19.325 23.1963 20.0398 22.8601 20.5622 22.3038C21.0845 21.7475 21.3753 21.0131 21.3752 20.25V18.3867C21.3747 18.2367 21.4194 18.09 21.5035 17.9658C21.5876 17.8415 21.7072 17.7455 21.8467 17.6903L22.3072 17.506C22.5862 17.3955 22.8253 17.2036 22.9935 16.9551C23.1617 16.7067 23.2512 16.4133 23.2502 16.1133V15.375C23.2504 14.9979 23.108 14.6346 22.8516 14.3581C22.9764 14.2527 23.0768 14.1213 23.1457 13.9731C23.2145 13.8249 23.2502 13.6634 23.2502 13.5V8.25C23.2498 7.95173 23.1312 7.66578 22.9203 7.45488C22.7094 7.24397 22.4234 7.12534 22.1252 7.125ZM12.0002 3H11.6252V2.40532C11.6252 2.16522 11.7206 1.93495 11.8903 1.76517C12.0601 1.59539 12.2904 1.50001 12.5305 1.5H15.9699C16.21 1.50001 16.4402 1.59539 16.61 1.76517C16.7798 1.93495 16.8752 2.16522 16.8752 2.40532V4.6875C16.8752 4.76312 16.8599 4.83797 16.8304 4.90757C16.8008 4.97716 16.7575 5.04008 16.703 5.09255C16.6485 5.14503 16.5841 5.18598 16.5134 5.21297C16.4428 5.23995 16.3674 5.25242 16.2918 5.24961C15.9932 5.23901 15.7502 4.97676 15.7502 4.66502C15.7497 4.22359 15.5741 3.80037 15.2619 3.48823C14.9498 3.17608 14.5266 3.0005 14.0852 3H12.0002ZM15.502 5.7178L14.5954 6.62443C14.5544 6.44841 14.4713 6.28495 14.3534 6.14804C14.2354 6.01112 14.086 5.90483 13.918 5.83825L13.9092 5.83475L15.0218 4.90759C15.0779 5.22713 15.2486 5.51522 15.502 5.7178ZM13.1626 5.4807C13.0333 5.37538 12.9291 5.24249 12.8578 5.09175C12.7864 4.94101 12.7497 4.77623 12.7502 4.60945V3.75H14.0852C14.2253 3.75011 14.3635 3.78248 14.4892 3.84459C14.6148 3.9067 14.7244 3.9969 14.8096 4.10819L13.1626 5.4807ZM9.39549 8.25H12.9699L12.5494 8.67048C12.4452 8.77527 12.3212 8.85835 12.1846 8.91491C12.0481 8.97148 11.9017 9.00039 11.7539 9H9.14548L9.39549 8.25ZM9.00017 9.75H11.7539C12.0002 9.75066 12.2442 9.70247 12.4718 9.6082C12.6994 9.51393 12.906 9.37547 13.0797 9.20082L15.7538 6.52669C15.7738 6.79422 15.8895 7.0456 16.0797 7.23482L16.1707 7.32584C16.2755 7.43006 16.3586 7.55403 16.4151 7.69057C16.4717 7.82712 16.5006 7.97353 16.5002 8.12132V10.875H14.2502V10.2804L15.2654 9.26516L14.735 8.73484L13.2994 10.1705C13.1952 10.2753 13.0712 10.3584 12.9346 10.4149C12.7981 10.4715 12.6517 10.5004 12.5039 10.5H9.00017V9.75ZM9.50207 18.375H9.01112C8.95144 18.3749 8.89263 18.3607 8.83957 18.3333C8.78651 18.306 8.74071 18.2665 8.70597 18.218L7.29665 16.2448C7.18265 16.0857 7.03089 15.9573 6.85501 15.8714L8.39547 11.25H12.5039C12.8564 11.2507 13.2019 11.1514 13.5002 10.9635V12C13.5001 12.0994 13.4605 12.1947 13.3902 12.265C13.3199 12.3353 13.2246 12.3749 13.1252 12.375H12.7502C12.2531 12.3756 11.7765 12.5733 11.425 12.9248C11.0735 13.2763 10.8757 13.7529 10.8752 14.25V16.5H10.6877C10.4662 16.4999 10.2484 16.5559 10.0544 16.6627C9.86042 16.7695 9.69663 16.9237 9.57828 17.1108C9.45993 17.298 9.39088 17.5121 9.37755 17.7331C9.36423 17.9542 9.40706 18.175 9.50207 18.375ZM7.87517 10.5C7.77572 10.5 7.68034 10.4605 7.61001 10.3902C7.53968 10.3198 7.50017 10.2245 7.50017 10.125C7.50017 10.0255 7.53968 9.93016 7.61001 9.85983C7.68034 9.78951 7.77572 9.75 7.87517 9.75H8.25017V10.5H7.87517ZM10.6877 17.25H12.7502V17.8125C12.75 17.9616 12.6907 18.1046 12.5852 18.2101C12.4798 18.3155 12.3368 18.3748 12.1877 18.375H10.6877C10.5385 18.375 10.3954 18.3157 10.2899 18.2102C10.1844 18.1048 10.1252 17.9617 10.1252 17.8125C10.1252 17.6633 10.1844 17.5202 10.2899 17.4148C10.3954 17.3093 10.5385 17.25 10.6877 17.25ZM11.6252 16.5V14.25C11.6255 13.9517 11.7442 13.6658 11.9551 13.4549C12.166 13.244 12.4519 13.1253 12.7502 13.125H13.1252C13.4234 13.1247 13.7094 13.006 13.9203 12.7951C14.1312 12.5842 14.2498 12.2983 14.2502 12V11.625H16.5002V13.5C16.5001 13.5994 16.4605 13.6947 16.3902 13.765C16.3199 13.8353 16.2246 13.8749 16.1252 13.875H14.2502C13.8525 13.8755 13.4712 14.0336 13.19 14.3148C12.9088 14.596 12.7506 14.9773 12.7502 15.375V16.5H11.6252ZM7.02047 7.5H8.33459C8.39401 7.5 8.45257 7.51412 8.50547 7.5412C8.55836 7.56827 8.60406 7.60753 8.6388 7.65573C8.67355 7.70394 8.69634 7.75971 8.7053 7.81844C8.71427 7.87718 8.70915 7.93721 8.69036 7.99358L8.35488 9H7.87517C7.59949 8.99997 7.33339 9.10118 7.12741 9.28441C6.92143 9.46765 6.78991 9.72014 6.75782 9.99395C6.72573 10.2678 6.79531 10.5438 6.95334 10.7697C7.11138 10.9956 7.34686 11.1556 7.61508 11.2193L6.68002 14.0245L5.43766 12.7821L5.81707 11.7957C5.88888 11.6087 5.90953 11.406 5.87688 11.2084C5.84422 11.0108 5.75945 10.8255 5.63131 10.6716L5.22372 10.1825L5.61217 9.98826C5.83279 9.8787 6.02949 9.72646 6.19088 9.54038C6.35227 9.35429 6.47516 9.13804 6.55242 8.90414L7.02047 7.5ZM4.78685 9.56239C4.68928 9.33797 4.64911 9.09279 4.66995 8.84896C4.69079 8.60513 4.77198 8.37032 4.90622 8.16571C5.04045 7.96109 5.2235 7.7931 5.43886 7.67689C5.65422 7.56067 5.89512 7.49988 6.13984 7.5H6.22987L5.84087 8.66698C5.79453 8.80732 5.7208 8.93708 5.62397 9.04873C5.52713 9.16039 5.4091 9.25173 5.27672 9.31746L4.78685 9.56239ZM5.14303 13.5482L6.41486 14.82L6.10486 15.75H4.29618L5.14303 13.5482ZM4.50017 22.5C4.04536 22.5002 3.60119 22.3624 3.22625 22.105C2.85131 21.8475 2.56323 21.4825 2.40001 21.058C2.23679 20.6334 2.20609 20.1694 2.31198 19.7271C2.41786 19.2848 2.65535 18.885 2.99311 18.5804L3.75493 18.0725C3.82583 18.0252 3.90919 17.9999 3.99444 18H5.21003C5.27874 18.0001 5.34644 18.0165 5.40753 18.048C5.46863 18.0794 5.52136 18.1249 5.56136 18.1808L6.69894 19.7735C6.77024 20.1018 6.76709 20.4419 6.68971 20.7688C6.61233 21.0958 6.4627 21.4012 6.2518 21.6627C6.0409 21.9242 5.77409 22.1352 5.47098 22.2801C5.16786 22.425 4.83614 22.5001 4.50017 22.5ZM18.3752 22.5C17.9302 22.5 17.4952 22.368 17.1251 22.1208C16.7551 21.8736 16.4667 21.5222 16.2964 21.111C16.1261 20.6999 16.0816 20.2475 16.1684 19.811C16.2552 19.3746 16.4695 18.9737 16.7842 18.659C17.0989 18.3443 17.4998 18.13 17.9362 18.0432C18.3727 17.9564 18.8251 18.001 19.2362 18.1713C19.6473 18.3416 19.9987 18.63 20.246 19C20.4932 19.37 20.6252 19.805 20.6252 20.25C20.6245 20.8465 20.3872 21.4184 19.9654 21.8402C19.5436 22.2621 18.9717 22.4993 18.3752 22.5ZM22.0287 16.8097L21.5681 16.9939C21.3071 17.0973 21.0805 17.2723 20.9145 17.4987C20.7484 17.725 20.6496 17.9937 20.6294 18.2737C20.2488 17.8387 19.7505 17.523 19.1946 17.3646C18.6386 17.2063 18.0488 17.2121 17.4961 17.3813C16.9433 17.5505 16.4514 17.876 16.0794 18.3184C15.7074 18.7609 15.4712 19.3014 15.3994 19.875H7.88612C7.82644 19.8749 7.76763 19.8607 7.71457 19.8333C7.66151 19.806 7.61571 19.7665 7.58097 19.718L7.3938 19.4559L7.3932 19.4536L7.3923 19.4538L6.17165 17.7448C6.06217 17.5919 5.91785 17.4673 5.75062 17.3812C5.5834 17.2952 5.39809 17.2502 5.21003 17.25H3.99444C3.7611 17.2498 3.53294 17.3189 3.33892 17.4485L2.55397 17.9718L2.55157 17.969C2.54519 17.9744 2.53928 17.9803 2.53295 17.9858L2.05256 18.3061C2.00162 18.34 1.94404 18.3628 1.88364 18.3728C1.82325 18.3828 1.76141 18.3798 1.70224 18.3641C1.64307 18.3484 1.58792 18.3203 1.54045 18.2816C1.49297 18.243 1.45426 18.1947 1.42689 18.1399C1.37758 18.0412 1.36792 17.9273 1.3999 17.8217C1.43187 17.7161 1.50305 17.6267 1.59882 17.5719L3.37517 16.5569C3.44043 16.5196 3.51427 16.5 3.58941 16.5H6.33503C6.40374 16.5001 6.47144 16.5165 6.53253 16.548C6.59363 16.5794 6.64636 16.6249 6.68636 16.6808L8.09568 18.6539C8.1999 18.7995 8.33729 18.9181 8.49648 19.0001C8.65567 19.082 8.83208 19.1248 9.01112 19.125H12.1877C12.5357 19.1246 12.8693 18.9862 13.1153 18.7401C13.3614 18.4941 13.4998 18.1605 13.5002 17.8125V16.125H22.5001C22.4983 16.273 22.4525 16.4171 22.3685 16.5391C22.2846 16.661 22.1663 16.7552 22.0287 16.8097ZM13.5002 15.375C13.5004 15.1762 13.5795 14.9855 13.7201 14.8449C13.8607 14.7043 14.0513 14.6252 14.2502 14.625H21.7502C21.949 14.6252 22.1397 14.7043 22.2803 14.8449C22.4209 14.9855 22.4999 15.1762 22.5002 15.375H13.5002ZM22.5002 13.5C22.5001 13.5994 22.4605 13.6947 22.3902 13.765C22.3199 13.8353 22.2246 13.8749 22.1252 13.875H17.6252C17.5258 13.8749 17.4304 13.8353 17.3601 13.765C17.2898 13.6947 17.2503 13.5994 17.2502 13.5V9.375H22.5002V13.5ZM22.5002 8.625H17.2502V8.25C17.2503 8.15058 17.2898 8.05526 17.3601 7.98496C17.4304 7.91466 17.5258 7.87511 17.6252 7.875H22.1252C22.2246 7.87511 22.3199 7.91466 22.3902 7.98496C22.4605 8.05526 22.5001 8.15058 22.5002 8.25V8.625Z" fill="black"/>
<path d="M21.75 5.25H18.75V6H21.75V5.25Z" fill="black"/>
<path d="M22.5 3.75H19.5V4.5H22.5V3.75Z" fill="black"/>
<path d="M23.25 2.25H21V3H23.25V2.25Z" fill="black"/>
<path d="M18.375 19.125C18.1525 19.125 17.935 19.191 17.75 19.3146C17.565 19.4382 17.4208 19.6139 17.3356 19.8195C17.2505 20.025 17.2282 20.2512 17.2716 20.4695C17.315 20.6877 17.4222 20.8882 17.5795 21.0455C17.7368 21.2028 17.9373 21.31 18.1555 21.3534C18.3738 21.3968 18.6 21.3745 18.8055 21.2894C19.0111 21.2042 19.1868 21.06 19.3104 20.875C19.434 20.69 19.5 20.4725 19.5 20.25C19.4997 19.9517 19.381 19.6658 19.1701 19.4549C18.9592 19.244 18.6733 19.1253 18.375 19.125ZM18.375 20.625C18.3008 20.625 18.2283 20.603 18.1667 20.5618C18.105 20.5206 18.0569 20.462 18.0285 20.3935C18.0002 20.325 17.9927 20.2496 18.0072 20.1768C18.0217 20.1041 18.0574 20.0373 18.1098 19.9848C18.1623 19.9324 18.2291 19.8967 18.3018 19.8822C18.3746 19.8677 18.45 19.8752 18.5185 19.9035C18.587 19.9319 18.6456 19.98 18.6868 20.0417C18.728 20.1033 18.75 20.1758 18.75 20.25C18.7499 20.3494 18.7103 20.4447 18.64 20.515C18.5697 20.5853 18.4744 20.6249 18.375 20.625Z" fill="black"/>
<path d="M16.125 2.25H15.375V3H16.125V2.25Z" fill="black"/>
<path d="M21.75 12.375C21.7494 11.943 21.5999 11.5243 21.3267 11.1896C21.0535 10.855 20.6732 10.6247 20.25 10.5377V10.125H19.5V10.5377C19.0768 10.6247 18.6965 10.855 18.4233 11.1896C18.1501 11.5243 18.0006 11.943 18 12.375V13.125H21.75V12.375ZM18.75 12.375C18.75 12.0766 18.8685 11.7905 19.0795 11.5795C19.2905 11.3685 19.5766 11.25 19.875 11.25C20.1734 11.25 20.4595 11.3685 20.6705 11.5795C20.8815 11.7905 21 12.0766 21 12.375H18.75Z" fill="black"/>
</g>
<defs>
<clipPath id="clip0_1999_1941">
<rect width="24" height="24" fill="white"/>
</clipPath>
</defs>
</svg>
