<svg width="23" height="22" viewBox="0 0 23 22" fill="none" xmlns="http://www.w3.org/2000/svg">
<path d="M20.5 20V10.25M2.5 10.25V20M1 20.75H22M13 20.75V13.625C13 13.3266 13.1185 13.0405 13.3295 12.8295C13.5405 12.6185 13.8266 12.5 14.125 12.5H17.125C17.4234 12.5 17.7095 12.6185 17.9205 12.8295C18.1315 13.0405 18.25 13.3266 18.25 13.625V20.75M17.4283 1.25H5.57172C4.55031 1.25 3.62781 1.8125 3.23125 2.67781L1.20156 7.10938C0.518125 8.60047 1.65297 10.2898 3.41359 10.3438H3.50734C4.97922 10.3438 6.17219 9.16344 6.17219 7.89547C6.17219 9.16109 7.36562 10.3438 8.8375 10.3438C10.3094 10.3438 11.5 9.24781 11.5 7.89547C11.5 9.16109 12.693 10.3438 14.1648 10.3438C15.6367 10.3438 16.8302 9.24781 16.8302 7.89547C16.8302 9.24781 18.0231 10.3438 19.495 10.3438H19.5864C21.347 10.2889 22.4819 8.59953 21.7984 7.10938L19.7687 2.67781C19.3722 1.8125 18.4497 1.25 17.4283 1.25ZM5.875 12.5H9.625C9.92337 12.5 10.2095 12.6185 10.4205 12.8295C10.6315 13.0405 10.75 13.3266 10.75 13.625V17.75H4.75V13.625C4.75 13.3266 4.86853 13.0405 5.0795 12.8295C5.29048 12.6185 5.57663 12.5 5.875 12.5Z" stroke="black" stroke-width="1.5" stroke-linecap="round" stroke-linejoin="round"/>
</svg>
