<svg width="24" height="24" viewBox="0 0 24 24" fill="none" xmlns="http://www.w3.org/2000/svg">
<path d="M5.59961 17.6V3.19995H19.9996V17.6C19.9996 19.3672 18.5668 20.8 16.7996 20.8" stroke="#FF0000" stroke-width="1.6" stroke-miterlimit="10" stroke-linecap="round" stroke-linejoin="round"/>
<path d="M13.6002 17.6001H3.2002C3.2002 19.3673 4.633 20.8001 6.4002 20.8001H16.8002C15.033 20.8001 13.6002 19.3673 13.6002 17.6001Z" stroke="#FF0000" stroke-width="1.6" stroke-miterlimit="10" stroke-linecap="round" stroke-linejoin="round"/>
<path d="M12 10.3999H16.8" stroke="#FF0000" stroke-width="1.6" stroke-miterlimit="10" stroke-linejoin="round"/>
<path d="M8.7998 10.3999H10.3998" stroke="#FF0000" stroke-width="1.6" stroke-miterlimit="10" stroke-linejoin="round"/>
<path d="M12 13.6001H16.8" stroke="#FF0000" stroke-width="1.6" stroke-miterlimit="10" stroke-linejoin="round"/>
<path d="M8.7998 13.6001H10.3998" stroke="#FF0000" stroke-width="1.6" stroke-miterlimit="10" stroke-linejoin="round"/>
<path d="M12 7.19995H16.8" stroke="#FF0000" stroke-width="1.6" stroke-miterlimit="10" stroke-linejoin="round"/>
<path d="M8.7998 7.19995H10.3998" stroke="#FF0000" stroke-width="1.6" stroke-miterlimit="10" stroke-linejoin="round"/>
<path d="M13.6002 17.6001H3.2002C3.2002 19.3673 4.633 20.8001 6.4002 20.8001H16.8002C15.033 20.8001 13.6002 19.3673 13.6002 17.6001Z" fill="#FF0000"/>
</svg>
