<svg width="18" height="14" viewBox="0 0 18 14" fill="none" xmlns="http://www.w3.org/2000/svg">
<path d="M16.0574 7.60844C16.0671 6.78025 15.8927 6.07878 15.2945 6.0026C13.7589 5.80719 10.883 5.66763 11.0228 6.6727C11.1623 7.67778 12.3908 8.8226 12.0837 9.37105C11.7766 9.91928 7.39312 9.88352 6.72299 9.49273C6.05289 9.10191 5.24322 6.3097 5.85748 4.57822C6.07117 3.9753 6.13581 3.44756 6.12966 3.0151H6.79307C6.85962 3.09193 6.95766 3.14074 7.06729 3.14074H8.31441C8.51488 3.14074 8.67738 2.97824 8.67738 2.77779C8.67738 2.57732 8.51488 2.41482 8.31441 2.41482H7.06729C6.95766 2.41482 6.85962 2.46363 6.79307 2.54046H6.07629C6.01785 2.34133 5.90629 2.16598 5.75833 2.02981C5.70911 1.98454 5.65612 1.9437 5.59936 1.9077C5.49184 1.31907 5.12022 0.89624 4.66605 0.89624C4.12511 0.89624 3.70141 1.49593 3.70141 2.26122C3.70141 2.91632 4.01161 3.44977 4.44018 3.58995C4.21893 3.87987 3.92596 4.20598 3.53999 4.56987C2.18207 5.8496 1.96305 7.42234 1.97675 8.36998C1.35882 8.62676 0.866727 9.14898 0.663423 9.81558C0.610359 9.9895 0.724983 10.17 0.904839 10.1967L1.01077 10.2125L1.74294 10.3214L2.13505 10.3796L3.05579 10.5165L4.20129 10.687L4.93278 10.7956L5.03896 10.8114C5.21771 10.838 5.38086 10.7006 5.38077 10.5199C5.38077 10.5188 5.38077 10.5176 5.38077 10.5165H12.7889C12.7399 10.6916 12.7136 10.8762 12.7136 11.067C12.7136 12.1919 13.6255 13.1038 14.7505 13.1038C15.8752 13.1038 16.7871 12.1919 16.7871 11.067C16.7871 10.8762 16.7608 10.6916 16.7118 10.5165H16.7385C16.967 10.5165 17.1715 10.3715 17.2444 10.1546C17.313 9.9506 17.3501 9.73222 17.3501 9.50504C17.3501 8.64289 16.8142 7.90563 16.0574 7.60844ZM4.82214 3.00418C4.77157 3.04945 4.71791 3.07417 4.66602 3.07417C4.47129 3.07417 4.25337 2.72641 4.25337 2.26119C4.25337 1.79598 4.47129 1.44819 4.66602 1.44819C4.8579 1.44819 5.07251 1.78626 5.07849 2.24154C5.0787 2.24794 5.0787 2.25457 5.0787 2.26119C5.0787 2.60233 4.96146 2.88032 4.82214 3.00418ZM14.7505 12.4108C14.0095 12.4108 13.4067 11.808 13.4067 11.067C13.4067 10.8712 13.4489 10.6848 13.5246 10.5166H13.5454C13.5416 10.5099 13.5376 10.5031 13.5339 10.4965C13.7489 10.0401 14.2135 9.72346 14.7505 9.72346C15.1126 9.72346 15.4416 9.8672 15.6834 10.101C15.8055 10.2189 15.9053 10.3598 15.9759 10.5166C16.0519 10.6848 16.094 10.8712 16.094 11.067C16.094 11.808 15.4912 12.4108 14.7505 12.4108Z" fill="#3265D8"/>
</svg>
