<svg width="22" height="21" viewBox="0 0 22 21" fill="none" xmlns="http://www.w3.org/2000/svg">
<path d="M21.2667 19.0669H20.7167C20.6681 19.0669 20.6215 19.0476 20.5871 19.0132C20.5527 18.9788 20.5334 18.9322 20.5334 18.8836V11.0693C20.5338 11.0402 20.5273 11.0113 20.5143 10.9852C20.5013 10.9591 20.4823 10.9364 20.4588 10.9191C20.4353 10.9018 20.4081 10.8904 20.3793 10.8857C20.3505 10.8811 20.321 10.8834 20.2932 10.8924C19.8726 11.0246 19.4359 11.0983 18.9952 11.1115C18.9411 11.1115 18.8898 11.1138 18.8394 11.1138C17.9918 11.1158 17.1578 10.9006 16.4171 10.4886C16.361 10.4574 16.2979 10.4411 16.2337 10.4411C16.1696 10.4411 16.1065 10.4574 16.0504 10.4886C15.3098 10.9006 14.476 11.1158 13.6285 11.1138C12.7858 11.115 11.9573 10.8972 11.2241 10.4818C11.1675 10.4497 11.1037 10.4329 11.0387 10.4329C10.9737 10.4329 10.9098 10.4497 10.8533 10.4818C10.1091 10.8988 9.26983 11.1166 8.41676 11.1143C7.5684 11.1148 6.73462 10.8936 5.99811 10.4726C5.94111 10.4402 5.87667 10.4231 5.8111 10.4231C5.74553 10.4231 5.68109 10.4402 5.6241 10.4726C4.88759 10.8936 4.05381 11.1148 3.20545 11.1143C3.15549 11.1143 3.10507 11.1143 3.05099 11.112H3.04824C2.59209 11.0983 2.14022 11.0197 1.70622 10.8787C1.67874 10.8698 1.64954 10.8675 1.62102 10.8721C1.59249 10.8766 1.56545 10.8878 1.54208 10.9048C1.51871 10.9218 1.49969 10.944 1.48656 10.9698C1.47342 10.9955 1.46655 11.024 1.46651 11.0528V18.8836C1.46651 18.9322 1.44719 18.9788 1.41281 19.0132C1.37843 19.0476 1.3318 19.0669 1.28317 19.0669H0.756085C0.36008 19.0669 0.0181598 19.3712 0.000742923 19.7672C-0.00371512 19.8662 0.0119253 19.9651 0.0467203 20.0578C0.0815152 20.1506 0.134743 20.2353 0.203192 20.3069C0.27164 20.3785 0.35389 20.4356 0.444978 20.4745C0.536065 20.5135 0.6341 20.5336 0.733168 20.5336H21.2438C21.6398 20.5336 21.9818 20.2292 21.9992 19.8332C22.0036 19.7343 21.988 19.6354 21.9532 19.5427C21.9184 19.4499 21.8652 19.3652 21.7967 19.2936C21.7283 19.2219 21.646 19.1649 21.5549 19.126C21.4638 19.087 21.3658 19.0669 21.2667 19.0669ZM9.53327 15.9502C9.53327 15.9988 9.51396 16.0455 9.47957 16.0798C9.44519 16.1142 9.39856 16.1335 9.34994 16.1335H5.31656C5.26793 16.1335 5.2213 16.1142 5.18692 16.0798C5.15254 16.0455 5.13322 15.9988 5.13322 15.9502V13.0168C5.13322 12.871 5.19117 12.7311 5.29431 12.6279C5.39746 12.5248 5.53736 12.4668 5.68323 12.4668H8.98326C9.12914 12.4668 9.26903 12.5248 9.37218 12.6279C9.47532 12.7311 9.53327 12.871 9.53327 13.0168V15.9502ZM16.6834 19.0669H13.3833C13.3347 19.0669 13.2881 19.0476 13.2537 19.0132C13.2193 18.9788 13.2 18.9322 13.2 18.8836V13.0168C13.2 12.871 13.2579 12.7311 13.3611 12.6279C13.4642 12.5248 13.6041 12.4668 13.75 12.4668H16.3167C16.4626 12.4668 16.6025 12.5248 16.7056 12.6279C16.8087 12.7311 16.8667 12.871 16.8667 13.0168V18.8836C16.8667 18.9322 16.8474 18.9788 16.813 19.0132C16.7786 19.0476 16.732 19.0669 16.6834 19.0669ZM21.8429 6.33791L19.8757 1.82373C19.3605 0.715925 18.184 0 16.8781 0H5.11947C3.81366 0 2.63711 0.715925 2.12193 1.82373L0.154745 6.33791C-0.25776 7.22755 0.287205 8.14102 0.287663 8.14147L0.300496 8.1621C0.322955 8.19785 0.36283 8.25377 0.387122 8.28952C0.389414 8.29227 0.391247 8.29548 0.393539 8.29868L0.622708 8.57598C0.631277 8.58645 0.64046 8.59639 0.650209 8.60577L0.879378 8.82715L0.898628 8.84365C1.03321 8.959 1.17717 9.06295 1.32901 9.1544V9.1567C1.82782 9.45886 2.39612 9.6273 2.97903 9.64574H3.09224C3.97421 9.64739 4.82404 9.31476 5.47056 8.71486L5.48568 8.70065C5.5532 8.63703 5.64247 8.6016 5.73525 8.6016C5.82802 8.6016 5.91729 8.63703 5.98481 8.70065L5.99994 8.71486C6.65335 9.31374 7.5075 9.64596 8.39384 9.64596C9.28018 9.64596 10.1343 9.31374 10.7877 8.71486C10.8555 8.65211 10.9445 8.61725 11.0369 8.61725C11.1292 8.61725 11.2182 8.65211 11.286 8.71486C11.9374 9.31185 12.7885 9.64388 13.6721 9.64583C14.5557 9.64778 15.4082 9.31951 16.0623 8.7254C16.1291 8.66355 16.2167 8.62919 16.3077 8.62919C16.3988 8.62919 16.4864 8.66355 16.5532 8.7254C17.208 9.32313 18.0642 9.6518 18.9508 9.64574H19.0649C19.6332 9.62453 20.1861 9.45549 20.6691 9.15532C20.7126 9.1292 20.7543 9.10169 20.7965 9.07419C21.1222 8.85459 21.4058 8.57807 21.6334 8.25789L21.7132 8.13735C21.7211 8.12513 21.7284 8.11229 21.7352 8.09885C21.8112 7.94393 22.2192 7.14734 21.8429 6.33791Z" fill="#FF0000"/>
</svg>
